<svg xmlns="http://www.w3.org/2000/svg" xmlns:xlink="http://www.w3.org/1999/xlink" id="Capa_1" x="0px" y="0px" viewBox="0 0 328 86.27" style="enable-background:new 0 0 328 86.27;" xml:space="preserve"><style type="text/css">	.st0{fill-rule:evenodd;clip-rule:evenodd;fill:#BCBEC0;}	.st1{fill:#FFCF01;}	.st2{fill:#FFFFFF;}	.st3{fill-rule:evenodd;clip-rule:evenodd;fill:#FFCF01;}	.st4{fill:#FFB71B;}	.st5{fill:#FF8300;}	.st6{fill:#144991;}	.st7{fill-rule:evenodd;clip-rule:evenodd;fill:#144991;}	.st8{fill-rule:evenodd;clip-rule:evenodd;fill:#1F8541;}	.st9{fill-rule:evenodd;clip-rule:evenodd;fill:#FFFFFF;}	.st10{fill:none;stroke:#000000;stroke-width:0.149;}	.st11{fill:#6D6E71;}	.st12{fill:#195296;}	.st13{fill:#231F20;}	.st14{fill:none;stroke:#231F20;stroke-width:0.1755;}	.st15{fill:none;stroke:#000000;stroke-width:0.1791;}	.st16{fill:#114E92;}	.st17{fill:#A4ACAC;}	.st18{fill:#DADEDC;}	.st19{fill:#376FB7;}	.st20{fill:#48484A;}	.st21{fill:#011E41;}	.st22{fill:#FF6B00;}	.st23{fill:#D42F27;}</style><g>	<path class="st23" d="M190.78,51.93v4.75h2.76c0.59,0,0.98-0.16,1.16-0.47c0.18-0.31,0.28-0.67,0.28-1.07v-1.67  c0-0.4-0.09-0.76-0.28-1.07c-0.18-0.31-0.57-0.47-1.16-0.47H190.78z M256.11,67.56c0,0.4-0.09,0.69-0.26,0.86s-0.45,0.27-0.84,0.27  h-4.5c-0.39,0-0.67-0.09-0.84-0.27c-0.17-0.18-0.26-0.47-0.26-0.86v-8.3c0-0.63,0.1-1.35,0.29-2.17c0.19-0.82,0.49-1.77,0.9-2.86  l2.66-7.14c0.12-0.36,0.31-0.62,0.57-0.79c0.26-0.17,0.59-0.25,0.99-0.25h8.24c0.39,0,0.71,0.08,0.96,0.25s0.44,0.43,0.57,0.79  l2.66,7.14c0.41,1.09,0.71,2.04,0.9,2.86c0.19,0.82,0.29,1.54,0.29,2.17v8.3c0,0.4-0.09,0.69-0.26,0.86  c-0.17,0.18-0.45,0.27-0.84,0.27h-4.62c-0.41,0-0.71-0.09-0.9-0.27c-0.19-0.18-0.29-0.47-0.29-0.86v-4.4h-5.42V67.56z   M257.85,52.66l-1.44,4.78h4.81l-1.44-4.78c-0.08-0.19-0.17-0.32-0.26-0.41c-0.09-0.08-0.2-0.13-0.32-0.13h-0.77  c-0.12,0-0.23,0.04-0.32,0.13S257.94,52.47,257.85,52.66 M232.51,68.69h-4.59c-0.39,0-0.67-0.09-0.84-0.27  c-0.17-0.18-0.26-0.47-0.26-0.86V47.18c0-0.4,0.09-0.69,0.26-0.86c0.17-0.18,0.45-0.27,0.84-0.27h3.18c0.39,0,0.72,0.06,1,0.19  c0.28,0.13,0.55,0.35,0.81,0.66l5.94,6.98v-6.7c0-0.4,0.09-0.69,0.26-0.86c0.17-0.18,0.45-0.27,0.84-0.27h4.59  c0.39,0,0.67,0.09,0.84,0.27c0.17,0.18,0.26,0.47,0.26,0.86v20.38c0,0.4-0.09,0.69-0.26,0.86c-0.17,0.18-0.45,0.27-0.84,0.27h-4.59  c-0.39,0-0.67-0.09-0.84-0.27c-0.17-0.18-0.26-0.47-0.26-0.86v-3.87l-5.23-6.51v10.38c0,0.4-0.09,0.69-0.26,0.86  C233.17,68.6,232.89,68.69,232.51,68.69 M210.71,67.56c0,0.4-0.09,0.69-0.26,0.86c-0.17,0.18-0.45,0.27-0.84,0.27h-4.5  c-0.39,0-0.67-0.09-0.84-0.27c-0.17-0.18-0.26-0.47-0.26-0.86v-8.3c0-0.63,0.1-1.35,0.29-2.17c0.19-0.82,0.5-1.77,0.9-2.86  l2.66-7.14c0.12-0.36,0.31-0.62,0.57-0.79c0.25-0.17,0.59-0.25,0.99-0.25h8.24c0.39,0,0.71,0.08,0.96,0.25  c0.25,0.17,0.44,0.43,0.57,0.79l2.66,7.14c0.41,1.09,0.71,2.04,0.9,2.86c0.19,0.82,0.29,1.54,0.29,2.17v8.3  c0,0.4-0.09,0.69-0.26,0.86c-0.17,0.18-0.45,0.27-0.84,0.27h-4.62c-0.41,0-0.71-0.09-0.9-0.27c-0.19-0.18-0.29-0.47-0.29-0.86v-4.4  h-5.42V67.56z M189.74,68.69h-4.75c-0.39,0-0.67-0.09-0.84-0.27c-0.17-0.18-0.26-0.47-0.26-0.86V47.18c0-0.4,0.09-0.69,0.26-0.86  c0.17-0.18,0.45-0.27,0.84-0.27h9.37c2.78,0,4.67,0.57,5.69,1.7c1.02,1.13,1.53,2.61,1.53,4.43v4.03c0,1.82-0.51,3.3-1.53,4.43  c-1.02,1.13-2.92,1.7-5.69,1.7h-3.52v5.22c0,0.4-0.09,0.69-0.26,0.86C190.41,68.6,190.13,68.69,189.74,68.69 M212.45,52.66  l-1.44,4.78h4.81l-1.44-4.78c-0.08-0.19-0.17-0.32-0.26-0.41c-0.09-0.08-0.2-0.13-0.32-0.13h-0.77c-0.12,0-0.23,0.04-0.32,0.13  C212.62,52.33,212.54,52.47,212.45,52.66 M163.56,68.69H159c-0.39,0-0.67-0.09-0.84-0.27s-0.26-0.47-0.26-0.86V47.18  c0-0.4,0.09-0.69,0.26-0.86c0.17-0.18,0.45-0.27,0.84-0.27h4.93c0.33,0,0.6,0.07,0.81,0.22c0.21,0.15,0.41,0.39,0.6,0.72l2.76,5.13  c0.1,0.19,0.19,0.32,0.26,0.41c0.07,0.08,0.17,0.13,0.29,0.13h0.28c0.12,0,0.22-0.04,0.29-0.13c0.07-0.08,0.16-0.22,0.26-0.41  L172.2,47c0.18-0.34,0.38-0.58,0.6-0.72c0.21-0.15,0.48-0.22,0.81-0.22h4.96c0.39,0,0.67,0.09,0.84,0.27  c0.17,0.18,0.26,0.47,0.26,0.86v20.38c0,0.4-0.09,0.69-0.26,0.86c-0.17,0.18-0.45,0.27-0.84,0.27h-4.72  c-0.39,0-0.67-0.09-0.84-0.27c-0.17-0.18-0.26-0.47-0.26-0.86V56.49l-1.81,3.43c-0.18,0.36-0.4,0.61-0.66,0.77  c-0.25,0.16-0.58,0.24-0.96,0.24h-1.22c-0.39,0-0.71-0.08-0.96-0.24c-0.25-0.16-0.47-0.41-0.66-0.77l-1.81-3.43v11.07  c0,0.4-0.09,0.69-0.26,0.86C164.23,68.6,163.95,68.69,163.56,68.69 M141.79,67.56c0,0.4-0.09,0.69-0.26,0.86s-0.45,0.27-0.84,0.27  h-4.5c-0.39,0-0.67-0.09-0.84-0.27c-0.17-0.18-0.26-0.47-0.26-0.86v-8.3c0-0.63,0.1-1.35,0.29-2.17c0.19-0.82,0.49-1.77,0.9-2.86  l2.66-7.14c0.12-0.36,0.31-0.62,0.57-0.79c0.26-0.17,0.59-0.25,0.99-0.25h8.24c0.39,0,0.71,0.08,0.96,0.25  c0.25,0.17,0.44,0.43,0.57,0.79l2.66,7.14c0.41,1.09,0.71,2.04,0.9,2.86c0.19,0.82,0.29,1.54,0.29,2.17v8.3  c0,0.4-0.09,0.69-0.26,0.86c-0.17,0.18-0.45,0.27-0.84,0.27h-4.62c-0.41,0-0.71-0.09-0.9-0.27c-0.19-0.18-0.29-0.47-0.29-0.86v-4.4  h-5.42V67.56z M143.54,52.66l-1.44,4.78h4.81l-1.44-4.78c-0.08-0.19-0.17-0.32-0.26-0.41c-0.09-0.08-0.2-0.13-0.32-0.13h-0.77  c-0.12,0-0.23,0.04-0.32,0.13C143.71,52.33,143.62,52.47,143.54,52.66 M130.99,68.69h-7.47c-2.55,0-4.44-0.52-5.68-1.57  c-1.23-1.05-1.85-2.66-1.85-4.84V52.5c0-2.18,0.62-3.8,1.85-4.86c1.24-1.06,3.13-1.59,5.68-1.59h7.47c0.39,0,0.67,0.09,0.84,0.27  c0.17,0.18,0.26,0.47,0.26,0.86v3.81c0,0.4-0.09,0.69-0.26,0.86c-0.17,0.18-0.45,0.27-0.84,0.27h-6.15c-0.63,0-1.1,0.13-1.41,0.39  c-0.31,0.26-0.46,0.65-0.46,1.18v7.48c0,0.52,0.15,0.91,0.46,1.15c0.31,0.24,0.78,0.36,1.41,0.36h6.15c0.39,0,0.67,0.09,0.84,0.27  c0.17,0.18,0.26,0.47,0.26,0.87v3.74c0,0.4-0.09,0.69-0.26,0.86C131.66,68.6,131.38,68.69,130.99,68.69"></path>	<path class="st13" d="M255.43,39.41c0,0.41-0.09,0.7-0.27,0.88c-0.18,0.18-0.48,0.27-0.88,0.27h-4.71c-0.41,0-0.7-0.09-0.88-0.27  c-0.18-0.18-0.27-0.48-0.27-0.88v-8.46c0-0.64,0.1-1.38,0.3-2.21c0.2-0.83,0.52-1.81,0.95-2.92l2.79-7.28  c0.13-0.36,0.33-0.63,0.59-0.8c0.27-0.17,0.61-0.26,1.04-0.26h8.62c0.41,0,0.74,0.08,1.01,0.26c0.27,0.17,0.46,0.44,0.59,0.8  l2.79,7.28c0.43,1.11,0.74,2.08,0.95,2.92c0.2,0.83,0.3,1.57,0.3,2.21v8.46c0,0.41-0.09,0.7-0.27,0.88  c-0.18,0.18-0.48,0.27-0.88,0.27h-4.84c-0.43,0-0.74-0.09-0.95-0.27c-0.2-0.18-0.3-0.48-0.3-0.88v-4.49h-5.67V39.41z M257.26,24.21  l-1.51,4.87h5.03l-1.51-4.87c-0.09-0.19-0.18-0.33-0.27-0.42c-0.1-0.09-0.21-0.13-0.34-0.13h-0.8c-0.13,0-0.24,0.04-0.34,0.13  C257.44,23.88,257.35,24.02,257.26,24.21 M231.17,40.56h-4.94c-0.41,0-0.7-0.09-0.88-0.27c-0.18-0.18-0.27-0.48-0.27-0.88V18.64  c0-0.41,0.09-0.7,0.27-0.88c0.18-0.18,0.48-0.27,0.88-0.27h10.67c2.39,0,4.04,0.5,4.95,1.49c0.91,0.99,1.36,2.28,1.36,3.86v1.47  c0,0.9-0.13,1.66-0.4,2.29c-0.27,0.63-0.73,1.08-1.39,1.36c1.15,0.13,2.09,0.6,2.8,1.41c0.72,0.81,1.07,1.89,1.07,3.24v6.79  c0,0.41-0.09,0.7-0.27,0.88c-0.18,0.18-0.48,0.27-0.88,0.27h-4.97c-0.41,0-0.7-0.09-0.88-0.27c-0.18-0.18-0.27-0.48-0.27-0.88v-4.9  c0-0.47-0.09-0.82-0.27-1.04c-0.18-0.22-0.5-0.34-0.94-0.34h-4.49v6.28c0,0.41-0.09,0.7-0.27,0.88  C231.87,40.47,231.58,40.56,231.17,40.56 M232.33,23.25v4.1h2.4c0.56,0,0.93-0.14,1.12-0.43c0.19-0.29,0.29-0.65,0.29-1.07v-1.09  c0-0.43-0.1-0.79-0.29-1.07c-0.19-0.29-0.57-0.43-1.12-0.43H232.33z M220.15,40.56h-14.87c-0.41,0-0.7-0.09-0.88-0.27  c-0.18-0.18-0.27-0.48-0.27-0.88V18.64c0-0.41,0.09-0.7,0.27-0.88c0.18-0.18,0.48-0.27,0.88-0.27h14.87c0.41,0,0.7,0.09,0.88,0.27  c0.18,0.18,0.27,0.48,0.27,0.88v3.75c0,0.41-0.09,0.7-0.27,0.88c-0.18,0.18-0.48,0.27-0.88,0.27h-8.85v2.47h6.25  c0.41,0,0.7,0.09,0.88,0.27c0.18,0.18,0.27,0.48,0.27,0.88v3.43c0,0.41-0.09,0.7-0.27,0.88c-0.18,0.18-0.48,0.27-0.88,0.27h-6.25  v2.76h8.85c0.41,0,0.7,0.09,0.88,0.27c0.18,0.18,0.27,0.48,0.27,0.88v3.75c0,0.41-0.09,0.7-0.27,0.88  C220.85,40.47,220.55,40.56,220.15,40.56 M194,40.56h-5.19c-0.41,0-0.7-0.09-0.88-0.27c-0.18-0.18-0.27-0.48-0.27-0.88V23.67h-4.71  c-0.41,0-0.7-0.09-0.88-0.27c-0.18-0.18-0.27-0.48-0.27-0.88v-3.88c0-0.41,0.09-0.7,0.27-0.88c0.18-0.18,0.48-0.27,0.88-0.27h16.92  c0.41,0,0.7,0.09,0.88,0.27c0.18,0.18,0.27,0.48,0.27,0.88v3.88c0,0.41-0.09,0.7-0.27,0.88c-0.18,0.18-0.48,0.27-0.88,0.27h-4.71  v15.74c0,0.41-0.09,0.7-0.27,0.88C194.7,40.47,194.4,40.56,194,40.56 M164.93,40.56h-4.81c-0.41,0-0.7-0.09-0.88-0.27  c-0.18-0.18-0.27-0.48-0.27-0.88V18.64c0-0.41,0.09-0.7,0.27-0.88c0.18-0.18,0.48-0.27,0.88-0.27h3.33c0.41,0,0.75,0.06,1.04,0.19  c0.29,0.13,0.57,0.35,0.85,0.67l6.22,7.12v-6.83c0-0.41,0.09-0.7,0.27-0.88c0.18-0.18,0.48-0.27,0.88-0.27h4.81  c0.41,0,0.7,0.09,0.88,0.27c0.18,0.18,0.27,0.48,0.27,0.88v20.77c0,0.41-0.09,0.7-0.27,0.88c-0.18,0.18-0.48,0.27-0.88,0.27h-4.81  c-0.41,0-0.7-0.09-0.88-0.27c-0.18-0.18-0.27-0.48-0.27-0.88v-3.94l-5.48-6.63v10.58c0,0.41-0.09,0.7-0.27,0.88  C165.63,40.47,165.34,40.56,164.93,40.56 M142.11,39.41c0,0.41-0.09,0.7-0.27,0.88c-0.18,0.18-0.48,0.27-0.88,0.27h-4.71  c-0.41,0-0.7-0.09-0.88-0.27c-0.18-0.18-0.27-0.48-0.27-0.88v-8.46c0-0.64,0.1-1.38,0.3-2.21c0.2-0.83,0.52-1.81,0.95-2.92  l2.79-7.28c0.13-0.36,0.33-0.63,0.59-0.8c0.27-0.17,0.61-0.26,1.04-0.26h8.62c0.41,0,0.74,0.08,1.01,0.26  c0.27,0.17,0.46,0.44,0.59,0.8l2.79,7.28c0.43,1.11,0.74,2.08,0.95,2.92c0.2,0.83,0.3,1.57,0.3,2.21v8.46  c0,0.41-0.09,0.7-0.27,0.88c-0.18,0.18-0.48,0.27-0.88,0.27h-4.84c-0.43,0-0.74-0.09-0.95-0.27c-0.2-0.18-0.3-0.48-0.3-0.88v-4.49  h-5.67V39.41z M143.94,24.21l-1.51,4.87h5.03l-1.51-4.87c-0.08-0.19-0.18-0.33-0.27-0.42c-0.1-0.09-0.21-0.13-0.34-0.13h-0.8  c-0.13,0-0.24,0.04-0.34,0.13C144.11,23.88,144.02,24.02,143.94,24.21 M130.8,40.56h-7.82c-2.67,0-4.65-0.53-5.94-1.6  c-1.29-1.07-1.94-2.71-1.94-4.94v-9.97c0-2.22,0.65-3.87,1.94-4.95c1.29-1.08,3.27-1.62,5.94-1.62h7.82c0.41,0,0.7,0.09,0.88,0.27  c0.18,0.18,0.27,0.48,0.27,0.88v3.88c0,0.41-0.09,0.7-0.27,0.88c-0.18,0.18-0.48,0.27-0.88,0.27h-6.44c-0.66,0-1.15,0.13-1.47,0.4  c-0.32,0.27-0.48,0.67-0.48,1.2v7.63c0,0.53,0.16,0.92,0.48,1.17c0.32,0.25,0.81,0.37,1.47,0.37h6.44c0.41,0,0.7,0.09,0.88,0.27  c0.18,0.18,0.27,0.48,0.27,0.88v3.81c0,0.41-0.09,0.7-0.27,0.88C131.5,40.47,131.21,40.56,130.8,40.56"></path>	<g>		<path class="st13" d="M95.52,19.91c-0.88-0.79-1.92-1.18-3.1-1.18h-7.39c-1.18,0-2.22,0.39-3.1,1.18   c-0.89,0.79-1.72,2.07-2.52,3.85L65.52,68.69h46.42l-13.9-44.94C97.25,21.98,96.41,20.7,95.52,19.91z"></path>		<path class="st2" d="M86.72,27.27c-0.75-0.67-1.63-1.01-2.63-1.01h-6.28c-1,0-1.88,0.33-2.63,1.01c-0.76,0.67-1.46,1.76-2.14,3.27   l-11.8,38.24h39.42l-11.8-38.24C88.19,29.04,87.48,27.95,86.72,27.27z"></path>		<path class="st23" d="M82.29,31.73c-0.67-0.6-1.46-0.9-2.35-0.9h-5.6c-0.9,0-1.68,0.3-2.35,0.9c-0.67,0.6-1.31,1.57-1.91,2.91   L59.55,68.69h35.18L84.2,34.64C83.6,33.3,82.97,32.33,82.29,31.73z"></path>	</g></g></svg>