<svg xmlns="http://www.w3.org/2000/svg" id="Capa_1" viewBox="0 0 328 86.27"><defs><style>.cls-1{fill:#231f20;}.cls-1,.cls-2{stroke-width:0px;}.cls-2{fill:#ffb71b;}</style></defs><path class="cls-2" d="m102.93,66.46c-9.63-11.35-10.26-32.14-1.01-43.24,9.37-11,23.57-12.35,37.12-12.53h90.75s-9.33,15.15-9.33,15.15h-70.78c-10.32.04-22.46-.32-29.12,2.46-9.98,4.17-11.58,20.42-5.67,27.26"></path><path class="cls-2" d="m102.59,22.54c-9.72,11.35-9.72,32.13-.38,43.21,9.46,11,23.78,12.35,37.46,12.52h63.6s-.29-15.14-.29-15.14h-52.56c-10.42-.04-22.67.32-29.39-2.46-10.07-4.17-12.31-20.41-6.35-27.24"></path><path class="cls-1" d="m143.11,35.87h-6.06c-3.76,0-8.21-.35-10.79,3.35-1.76,2.44-1.81,7.65.19,10.56,2.44,3.55,4.79,3.15,9.58,3.15h10.16v6.58h-14.22c-5.96,0-9.91-.63-13.19-5.12-3.71-5.13-3.71-14.5-.15-19.51,3.62-4.97,9.09-5.44,14.31-5.52h14.56l-4.4,6.5Z"></path><polygon class="cls-1" points="161.93 29.4 168.87 53.6 175.8 29.4 190.26 29.4 190.26 59.55 182.11 59.55 182.11 35.16 174.88 59.55 162.52 59.55 155.78 34.41 155.78 59.55 147.57 59.55 147.57 29.4 161.93 29.4"></polygon><path class="cls-1" d="m200.38,59.55h-8.89v-30.15h19.1c3.47,0,8.94-.43,12.31,3.94,2,2.56,2.15,8.52.2,11.39-3.03,4.3-7.82,4.41-12.61,4.41h-10.47l.36-5.44v15.84Zm6.4-16.79c2.93,0,6.74.2,8.01-1.77.49-.79.54-2.8-.1-3.67-1.32-1.66-5.13-1.46-7.57-1.46h-6.74v6.9h6.4Z"></path><path class="cls-1" d="m131.96,22.92h-3.8c-2.42,0-3.19-.76-3.21-3.09-.01-1.05-.01-1.46,0-2.53.02-2.51.83-3.16,3.38-3.16h3.41c2.05,0,3.36.6,3.36,3.04h-2.15c-.01-.68-.37-1.02-1.57-1.02h-2.66c-1.25,0-1.65.16-1.66,1.52-.01.74-.01,1.02,0,1.76.01,1.35.47,1.59,1.66,1.59h2.66c1.24,0,1.6-.16,1.59-1.14h2.15c-.13,2.3-.58,3.02-3.15,3.02"></path><path class="cls-1" d="m146.54,19.94c-.05,2.5-.85,2.96-3.14,2.96h-3.81c-2.33,0-3.18-.47-3.2-2.96-.02-1.05-.04-1.57,0-2.64.05-2.51.76-3.07,3.2-3.07h3.81c2.09,0,3.11.56,3.14,3.07.01.89.01,1.86,0,2.64m-2.09-2.26c-.02-1.41-.39-1.54-1.63-1.54h-2.69c-1.3,0-1.65.12-1.68,1.54,0,.59-.01,1.12,0,1.89.01,1.42.45,1.49,1.68,1.49h2.69c1.16,0,1.6-.06,1.63-1.49.01-.76,0-1.33,0-1.89"></path><polygon class="cls-1" points="148.03 22.91 148.03 14.23 151.24 14.23 154.81 21.3 158.51 14.23 161.62 14.23 161.62 22.91 159.54 22.91 159.54 16.53 156.49 22.91 153.19 22.91 150.1 16.53 150.11 22.91 148.03 22.91"></polygon><polygon class="cls-1" points="163.2 22.91 163.2 14.23 172.07 14.23 172.07 15.96 165.27 15.96 165.27 17.56 171.86 17.56 171.86 19.29 165.27 19.29 165.27 21.17 172.07 21.17 172.07 22.91 163.2 22.91"></polygon><path class="cls-1" d="m183.34,22.91h-2.09v-1.35c0-.88-.35-1.24-1.65-1.24h-4.01v2.59h-2.09v-8.67h6.59c1.52,0,3.03.94,3.03,3.05,0,1.82-1.21,2.25-1.21,2.26,0,.07,1.44.07,1.44,1.56v1.8Zm-7.75-6.61v1.96h4.39c.88,0,1.12-.35,1.12-.92,0-.54-.25-1.04-1.17-1.04h-4.34Z"></path><path class="cls-1" d="m191.52,22.92h-3.8c-2.42,0-3.19-.76-3.21-3.09-.01-1.05-.01-1.46,0-2.53.02-2.51.82-3.16,3.37-3.16h3.41c2.05,0,3.36.6,3.36,3.04h-2.15c-.01-.68-.37-1.02-1.57-1.02h-2.66c-1.25,0-1.65.16-1.66,1.52-.01.74-.01,1.02,0,1.76.01,1.35.47,1.59,1.66,1.59h2.66c1.24,0,1.6-.16,1.59-1.14h2.15c-.12,2.3-.57,3.02-3.15,3.02"></path><rect class="cls-1" x="196.35" y="14.23" width="2.07" height="8.67"></rect><path class="cls-1" d="m199.45,22.91l4.47-8.67h3.29l4.47,8.67h-2.44l-1.05-2.09h-5.26l-1.06,2.09h-2.42Zm7.85-3.83l-1.65-3.22h-.1s-1.71,3.22-1.71,3.22h3.46Z"></path><polygon class="cls-1" points="212.38 22.91 212.38 14.23 214.47 14.23 214.47 21.17 219.81 21.17 219.81 22.91 212.38 22.91"></polygon></svg>