<svg xmlns="http://www.w3.org/2000/svg" xmlns:xlink="http://www.w3.org/1999/xlink" id="Capa_1" x="0px" y="0px" viewBox="0 0 328 86.3" style="enable-background:new 0 0 328 86.3;" xml:space="preserve"><style type="text/css">	.st0{fill:none;}	.st1{fill:#C6C6C5;}	.st2{fill:#396AB1;}</style><g>	<rect x="19.1" y="20.8" class="st0" width="289.7" height="54.1"></rect>	<g>		<polygon class="st1" points="40.9,40.1 40.9,40.1 40.9,61.6 45.5,61.6 45.5,37.1 41,35.4   "></polygon>		<polygon class="st1" points="46.8,61.6 51.2,61.6 51.2,34.2 46.8,32.6   "></polygon>		<polygon class="st1" points="35.7,61.6 39.8,61.6 39.8,39.7 35.7,38.1   "></polygon>		<polygon class="st1" points="52.6,61.6 57.4,61.6 57.4,31.6 52.6,29.8   "></polygon>		<polygon class="st1" points="65.3,29.2 65.3,61.6 79.1,61.6 79.1,29.1 65.3,24.1   "></polygon>		<polygon class="st1" points="58.9,32.2 58.9,32.2 58.9,61.6 63.7,61.6 63.7,28.6 58.9,26.8   "></polygon>		<polygon class="st2" points="92.4,61.6 95.6,61.6 95.6,49.4 110.5,49.4 110.5,46.9 95.6,46.9 95.6,36.5 113.1,36.5 113.1,34    92.4,34   "></polygon>		<path class="st2" d="M141.8,41.6c0-4.6-3.8-7.6-9.8-7.6h-12.9v27.6h3.2V49.2h8.6l7.9,12.4h3.7l-8-12.5   C139,48.3,141.8,45.5,141.8,41.6z M122.3,46.7V36.5h9.4c4.4,0,7,1.9,7,5.1c0,3.3-2.5,5.1-7,5.1H122.3z"></path>		<rect x="149.6" y="34" class="st2" width="3.2" height="27.6"></rect>		<path class="st2" d="M181,36.6c-2.2-1.8-5.2-2.8-8.5-2.8c-3.2,0-6.2,1-8.5,2.8c-3.2,2.6-3.2,5.3-3.2,11.2c0,5.9,0,8.6,3.2,11.2   c2.2,1.8,5.2,2.8,8.5,2.8c3.2,0,6.2-1,8.5-2.8c3.2-2.6,3.2-5.3,3.2-11.2C184.2,41.9,184.2,39.2,181,36.6z M178.6,57.4   c-1.6,1.3-3.7,2-6.1,2c-2.3,0-4.5-0.7-6.1-2c-2.2-1.8-2.4-3.8-2.4-9.5c0-5.7,0.2-7.7,2.4-9.5c1.6-1.3,3.7-2,6.1-2   c2.3,0,4.5,0.7,6.1,2c2.2,1.8,2.4,3.8,2.4,9.5C181.1,53.5,180.9,55.5,178.6,57.4z"></path>		<path class="st2" d="M209.5,48.6c-1.5-1-3-1.5-6-1.8l-3.6-0.5c-1.8-0.2-3.7-0.9-4.8-1.6c-1.1-0.7-1.6-1.8-1.6-3.3   c0-3.2,2.8-5.2,7.3-5.2c3.7,0,5.7,0.9,7.8,2.4l0.2,0.1L211,37l-0.3-0.2c-3-2.1-5.7-3-9.7-3c-6.4,0-10.6,3-10.6,7.7   c0,2.2,0.9,4,2.7,5.2c1.5,1,3.5,1.7,6,2l3.8,0.5c2.6,0.3,3.5,0.6,4.6,1.4c1.1,0.8,1.7,2,1.7,3.5c0,3.3-3,5.2-8.2,5.2   c-4,0-6.3-0.8-9.2-3.1l-0.2-0.2l-2.3,1.9l0.3,0.3c3.2,2.6,6.3,3.6,11.2,3.6c7,0,11.4-3.1,11.4-7.8   C212.5,51.8,211.4,49.9,209.5,48.6z"></path>		<polygon class="st2" points="238.8,34 216,34 216,36.5 225.8,36.5 225.8,61.6 229,61.6 229,36.5 238.8,36.5   "></polygon>		<polygon class="st2" points="249.7,34 237.3,61.6 240.7,61.6 251.2,38.5 258.5,54.9 261.4,61.6 264.8,61.6 252.4,34   "></polygon>		<path class="st2" d="M285.1,49.1c4.6-0.8,7.4-3.6,7.4-7.5c0-4.6-3.8-7.6-9.8-7.6h-12.9v27.6h3.2V49.2h8.6l7.9,12.4h3.7L285.1,49.1   z M272.9,46.7V36.5h9.4c4.4,0,7,1.9,7,5.1c0,3.3-2.5,5.1-7,5.1H272.9z"></path>		<path class="st2" d="M250.9,53.7c-1,0-1.8,0.8-1.8,1.8c0,1,0.8,1.8,1.8,1.8c1,0,1.8-0.8,1.8-1.8C252.8,54.5,252,53.7,250.9,53.7z"></path>	</g></g></svg>