<svg xmlns="http://www.w3.org/2000/svg" xmlns:xlink="http://www.w3.org/1999/xlink" id="Capa_1" x="0px" y="0px" viewBox="0 0 247 43.5" style="enable-background:new 0 0 247 43.5;" xml:space="preserve"><style type="text/css">	.st0{enable-background:new    ;}	.st1{fill:#4058A4;}	.st2{fill:#011E41;}</style><g>	<g>		<g class="st0">			<path class="st1" d="M211.7,25.5l-1.7,1.7l-4.3-1l-0.6,0.6l2.7,2.7l-1.5,1.5l-6.9-6.9l2.9-2.9c1.2-1.2,3-1.1,4.2,0.1    c0.9,0.9,1.1,2.3,0.5,3.3L211.7,25.5z M205,22.8c-0.5-0.5-1.2-0.5-1.6,0l-1.2,1.2l1.6,1.6l1.2-1.2C205.5,24,205.5,23.3,205,22.8z    "></path>			<path class="st1" d="M208.4,17.8l1.4,1.4l2.2-2.2l1.3,1.3l-2.2,2.2l1.4,1.4l2.6-2.6l1.3,1.3l-4.1,4.1l-6.9-6.9l4.1-4.1l1.3,1.3    L208.4,17.8z"></path>			<path class="st1" d="M220.2,14.5l-2.6,2.6l0.9,1.7l-1.6,1.6l-4.4-9.3l1.7-1.7l9.3,4.4l-1.6,1.6L220.2,14.5z M218.5,13.7l-3.6-1.8    l1.8,3.6L218.5,13.7z"></path>			<path class="st1" d="M226.5,8.1l1.3,1.3l-3.8,3.8l-6.9-6.9l1.5-1.5l5.5,5.5L226.5,8.1z"></path>		</g>		<g class="st0">			<path class="st1" d="M212,33.7l1.4,1.4l2.2-2.2l1.3,1.3l-2.2,2.2l1.4,1.4l2.6-2.6l1.3,1.3l-4.1,4.1l-6.9-6.9l4.1-4.1l1.3,1.3    L212,33.7z"></path>		</g>		<g class="st0">			<path class="st1" d="M219.4,34.6l0.5-2c0.8,0.3,1.6,0.1,2.3-0.5c0.5-0.5,0.6-1.1,0.2-1.5c-1.2-1.2-3.8,2.5-6.1,0.2    c-1.4-1.4-0.9-3.1,0.2-4.2c0.8-0.8,2-1.2,3.1-1.1l0,2c-0.7,0-1.3,0.1-1.7,0.5c-0.4,0.4-0.5,0.8-0.1,1.2c1.2,1.2,3.7-2.6,6.3-0.1    c1.3,1.3,0.9,3.1-0.3,4.4C222.3,34.7,220.7,35,219.4,34.6z"></path>		</g>		<g class="st0">			<path class="st1" d="M225.3,20.4l-1.7,1.7l5.5,5.5l-1.5,1.5l-5.5-5.5l-1.7,1.7l-1.3-1.3l5-5L225.3,20.4z"></path>			<path class="st1" d="M233.7,20.5l-2.6,2.6l0.9,1.7l-1.6,1.6L226,17l1.7-1.7l9.3,4.4l-1.6,1.6L233.7,20.5z M232.1,19.6l-3.6-1.8    l1.8,3.6L232.1,19.6z"></path>		</g>		<g class="st0">			<path class="st1" d="M235.3,10.4l-1.7,1.7l5.5,5.5l-1.5,1.5l-5.5-5.5l-1.7,1.7L229,14l5-5L235.3,10.4z"></path>			<path class="st1" d="M237.5,8.2l1.4,1.4l2.2-2.2l1.3,1.3l-2.2,2.2l1.4,1.4l2.6-2.6l1.3,1.3l-4.1,4.1l-6.9-6.9l4.1-4.1l1.3,1.3    L237.5,8.2z"></path>		</g>	</g>	<g>		<g>			<g>				<polygon class="st1" points="196.2,26.4 189,33.7 196.5,41.1 203.7,33.8     "></polygon>			</g>		</g>	</g>	<g>		<path class="st2" d="M2.3,21.6c0-11.4,8.4-20.1,20.1-20.1c8.2,0,14.4,4.1,17.8,9.7L32,15.8c-1.8-3.5-5.1-5.5-9.5-5.5   c-6.1,0-10.9,4.8-10.9,11.2c0,6.6,4.6,11.2,11,11.2c4.5,0,7.7-2.2,9-6.1H20.7V18h21v4.4c0,10.3-7.7,19.2-19,19.2   C10,41.7,2.3,32.5,2.3,21.6z"></path>		<path class="st2" d="M45.2,21.6c0-11.1,8.8-20.1,20-20.1c11.1,0,20,9,20,20.1s-8.8,20.1-20,20.1C54.1,41.7,45.2,32.8,45.2,21.6z    M75.9,21.6c0-6-4.6-10.9-10.7-10.9s-10.5,4.9-10.5,10.9c0,5.9,4.4,10.9,10.5,10.9C71.4,32.5,75.9,27.6,75.9,21.6z"></path>		<path class="st2" d="M84.6,2.8H94l7.6,23.8L109,2.8h9.3l-12,38.1h-9.4L84.6,2.8z"></path>		<path class="st2" d="M125.9,2.8h8.8l13,38.1h-9.2l-1.8-5.6h-12.8l-1.8,5.6h-9.2L125.9,2.8z M126.6,27h7.3l-3.6-11.1L126.6,27z"></path>		<path class="st2" d="M150.3,2.8h9.7l13.8,21.7V2.8h9v38.1h-9l-14.4-22.8v22.8h-9.1V2.8z"></path>	</g></g></svg>