<svg xmlns="http://www.w3.org/2000/svg" id="Capa_1" viewBox="0 0 328 86.27"><defs><style>.cls-1{fill:#bcbec0;}.cls-1,.cls-2{fill-rule:evenodd;}.cls-1,.cls-2,.cls-3,.cls-4,.cls-5{stroke-width:0px;}.cls-2,.cls-5{fill:#ffcf01;}.cls-3{fill:#231f20;}.cls-4{fill:#fff;}</style></defs><rect class="cls-3" x="27.17" y="15.26" width="273.65" height="35.89"></rect><path class="cls-3" d="m118.6,56.71l-4,9.09c-.02-1.22-.23-2.14-.6-2.82h.22v-1.41c0-.85,0-1.81-.42-2.79-1.01-2.12-2.97-2.16-4.19-2.19l-1.97-.06c-1.16,0-3.28.06-4.4.45-.82.26-1.36.69-1.75,1.19v-1.47h-12.76v2.15c-.53-1.21-1.64-2.15-3.89-2.15h-9.71v1.83c-.77-1.25-2.1-1.83-4.17-1.83h-14.84l-2.32,5.39-2.36-5.39h-18.68v14.15h17.4v-3.51l1.59,3.51h3.97l1.64-3.58v3.58h10.5v-2.82h3.52c2,0,3.12-.69,3.75-1.64v4.46h5.53v-2.91h2.9c0,.16,0,.33,0,.43v2.47h17.93v-1.3c.8,1.02,2.06,1.26,3.29,1.38.6.05,1.26.05,1.92.05,1.13,0,2.32-.04,3.59-.13.92-.09,1.7-.27,2.35-.61l-.27.61h6.15l.87-2.05h3.88l.87,2.05h6.02l-6.04-14.15h-5.5Z"></path><path class="cls-3" d="m290.02,56.71h-5.52l-4.55,10.38c-.03-.92-.27-1.6-.62-2.08.07-.1.14-.21.2-.33l.03-.06c.43-.95.49-1.97.49-2.94,0-2.14-.45-4.98-4.35-4.98h-9.73v2.51c-.75-1.85-2.28-2.62-4.92-2.63l-2-.06-2.15.08c-2.21.03-3.52.57-4.28,1.52v-1.43h-13.48v1.03c-.5-.49-1.16-.87-2.12-1.02-2.07-.21-4.02-.22-6.14-.04-2.26.2-3.39,1.26-3.96,2.59v-2.56h-5.57v7.81c-.01.43-.03.69-.05.84-.08,0-.19.01-.34.01l-.98.05-1.26-.05c-.23,0-.38-.02-.48-.04-.05-.33-.06-1-.06-1.27v-7.36h-5.55v2.06c-.55-1.16-1.66-2.06-3.87-2.06h-21.99v1.18c-1.06-1.22-2.58-1.27-3.6-1.29l-1.93-.06c-1.17,0-3.29.06-4.35.44-1.06.33-1.7.93-2.09,1.61v-1.89h-5.35v5.06l-3.21-5.06h-6.49v2.5c-.76-1.83-2.3-2.61-4.95-2.61l-1.98-.06-2.12.08c-3.17.05-4.48,1.11-5.01,2.98-.35-1.31-1.16-2.57-3.12-2.88-2.09-.21-4.1-.22-6.13-.04-4.54.4-4.54,4.42-4.54,6.82,0,.8,0,1.61.05,2.46.28,4.92,3.49,4.98,5.65,5.03h1.68c.72,0,1.44,0,2.15-.05,2.55-.11,3.86-.87,4.39-2.73.66,1.61,1.98,2.51,4.02,2.7.71.08,1.37.08,2.01.08h1l1.95-.05c2.92-.15,4.31-1.04,4.97-2.55v2.47h5.35v-5.08l3.2,5.08h6.5v-1.82c.74,1.44,2.15,1.76,3.54,1.9.65.05,1.3.05,1.91.05,1.16,0,2.34-.04,3.64-.13,2.56-.26,4.27-1.2,4.27-4.93,0-1.29-.23-2.24-.6-2.94h.22v-.61h2.98v8.49h5.52v-8.49h2.76v8.49h5.53v-2.91h2.89c0,.16,0,.32,0,.43v2.47h5.55v-2.91c1,3.03,3.72,3.04,5.82,3.04.34,0,.7,0,1.06.02.39,0,.79.02,1.16.02,2.39,0,4.82-.47,5.6-3.5.79,3.37,3.41,3.43,5.41,3.46h1.68c.73,0,1.41,0,2.12-.05,3.49-.15,4.67-1.49,4.67-5.3v-1.9h-5.48v1.41c0,.09,0,.16,0,.23-.25,0-.58.01-.86.03-.2,0-.4.02-.52.02l-1.07-.05c-.33-.01-.52-.04-.62-.07-.07-.33-.07-1.12-.07-1.52,0-.59,0-1.24.05-1.56.08,0,.19-.02.36-.02l2.1-.04c.16,0,.32,0,.48.02l.1.02.02,1.31h5.47l-.02-1.15h2.64v8.49h5.53v-8.49h2.91c-.01.41-.02.83-.02,1.27,0,.71,0,1.44.05,2.12.09,3.2,1.56,4.88,4.46,5.15.69.08,1.34.08,1.98.08h.88l2.13-.05c2.92-.15,4.3-1.05,4.95-2.57v2.49h5.54v-2.91h2.89c0,.16,0,.32,0,.43v2.47h9.96l.9-2.05h3.88l.81,2.05h6.09l-6.03-14.15Zm-149.43,7.03v1.41c0,.09,0,.16,0,.22-.24,0-.56.01-.84.03-.21.01-.42.02-.57.03l-1.05-.05c-.33-.01-.52-.04-.63-.07-.07-.33-.07-1.09-.07-1.52,0-.59,0-1.24.05-1.56.08,0,.19-.02.34-.02l2.09-.04c.18,0,.37,0,.58.03l.03,1.32h4.79v.23h-4.73Zm10.27.33v-.43c0-.43,0-.81.03-1.18.01-.1.03-.17.04-.22.12-.01.31-.02.44-.02h1.59c.36-.04.73-.05,1.09-.05.28,0,.51,0,.64.03.04.2.08.56.08,1.19,0,.44,0,.94-.04,1.39v.09c0,.24-.03.39-.05.48-.2.03-.53.03-.68.03h-1.39c-.4,0-.89,0-1.42-.05-.12,0-.22,0-.28-.02-.05-.32-.05-.94-.05-1.24m106.24,0v-.43c0-.42,0-.8.03-1.19.01-.1.02-.17.04-.22.12-.01.29-.02.41-.02h1.6c.37-.05.73-.05,1.11-.05.29,0,.52,0,.65.03.04.19.08.55.08,1.19,0,.22,0,.46-.02.7,0,.27-.02.53-.02.79-.01.25-.04.4-.07.48-.18.03-.53.03-.65.03h-1.41c-.44,0-.89,0-1.44-.05-.11,0-.19,0-.26-.02-.05-.32-.05-.94-.05-1.24"></path><polygon class="cls-4" points="90.14 69.45 100.08 69.45 100.08 66.91 92.87 66.91 92.87 64.9 99.59 64.9 99.59 62.63 92.87 62.63 92.87 60.7 100.08 60.7 100.08 58.12 90.14 58.12 90.14 69.45"></polygon><path class="cls-4" d="m87.43,64.04c.33-.71.37-1.56.37-2.35,0-2.74-.86-3.57-2.96-3.57h-8.3v11.33h2.71v-2.91h4.52c1.15,0,1.19.57,1.19,1.84v1.07h2.74v-2.18c0-1.55-.68-1.96-1.84-2.17.57-.24,1.23-.42,1.56-1.07m-3.73-.25h-4.45v-2.91h4.52c.25,0,.53,0,.79.08.49.21.49.65.52,1.27,0,1.23-.12,1.56-1.38,1.56"></path><path class="cls-4" d="m109.89,62.48h-1.8l-1.81-.06c-.62-.03-1.51.09-1.51-1,0-.71.48-.83.98-.87.66-.04,1.35-.08,2.06-.08h1.31c.57.04.99.24,1.03,1.11h2.66c0-.74,0-1.52-.28-2.18-.65-1.36-1.88-1.36-2.96-1.38l-1.92-.06c-1.03,0-3.03.06-3.97.38-1.4.44-1.65,1.6-1.65,3.27,0,2.14.54,3.16,2.26,3.29,1.51.11,2.99.11,4.46.11h.47c.56,0,1.23.09,1.23,1.03,0,.99-.57.95-1.19.99-.62.05-1.23.08-1.82.08-.44,0-.85-.03-1.26-.03-.62-.05-1.39,0-1.39-1.09v-.14h-2.71v.64c0,2.63,1.11,2.88,2.83,3.04.57.05,1.19.05,1.8.05,1.14,0,2.3-.05,3.44-.13,2.1-.21,3.05-.69,3.05-3.53s-1.25-3.44-3.3-3.44"></path><polygon class="cls-4" points="34.17 69.45 44.11 69.45 44.11 66.91 36.88 66.91 36.88 64.9 43.65 64.9 43.65 62.63 36.88 62.63 36.88 60.7 44.11 60.7 44.11 58.12 34.17 58.12 34.17 69.45"></polygon><path class="cls-4" d="m121.32,58.12h-1.8l-4.99,11.33h3.05l.87-2.05h5.75l.87,2.05h2.95l-4.84-11.33h-1.85Zm0,6.94h-1.94l1.94-4.52,1.88,4.52h-1.88Z"></path><path class="cls-4" d="m289.08,58.12h-3.67l-4.96,11.33h2.99l.9-2.05h5.76l.81,2.05h3l-4.83-11.33Zm-1.9,6.94h-1.89l1.89-4.52,1.94,4.52h-1.94Z"></path><polygon class="cls-4" points="53.81 65.64 50.51 58.12 46.21 58.12 46.21 69.45 48.74 69.45 48.74 60.83 52.65 69.45 54.82 69.45 58.77 60.83 58.77 69.45 61.31 69.45 61.31 58.12 57.05 58.12 53.81 65.64"></polygon><path class="cls-4" d="m70.96,58.12h-7.22v11.33h2.71v-2.82h4.93c2.75,0,3.16-1.4,3.16-4.32,0-3.45-1.04-4.18-3.58-4.18m-.58,5.74h-3.93v-2.98h3.9c.98,0,1.43.21,1.43,1.54,0,1.25-.46,1.44-1.4,1.44"></path><polygon class="cls-4" points="240.54 60.96 244.51 60.96 244.51 69.45 247.22 69.45 247.22 60.96 251.2 60.96 251.2 58.12 240.54 58.12 240.54 60.96"></polygon><path class="cls-4" d="m211.37,64.04c.34-.71.36-1.56.36-2.35,0-2.74-.91-3.57-2.98-3.57h-8.31v11.33h2.71v-2.91h4.52c1.15,0,1.19.57,1.19,1.84v1.07h2.74v-2.18c0-1.55-.69-1.96-1.8-2.17.54-.24,1.18-.42,1.56-1.07m-3.78-.25h-4.44v-2.91h4.52c.24,0,.52,0,.78.08.5.21.52.65.52,1.27,0,1.23-.11,1.56-1.38,1.56"></path><path class="cls-4" d="m222.76,64.11v.45c-.05,1.7-.21,2.22-1.73,2.22l-1.11.05-1.24-.05c-1.77-.05-1.89-.57-1.91-2.71v-5.95h-2.73v6.99c0,4.34,1.98,4.47,4.81,4.47.7,0,1.49.03,2.22.03,2.63,0,4.45-.52,4.45-4.35v-7.14h-2.75v5.99Z"></path><path class="cls-4" d="m142,65.15c0,1.56-.6,1.63-1.51,1.63-.46,0-.9.05-1.39.05l-1.03-.05c-1.97-.08-2.04-.7-2.04-2.99s0-2.99,1.76-2.99l1.4-.04h.73c.25,0,.5,0,.79.04.77.03,1.23.18,1.23,1.3h2.62c-.04-2.05-.28-3.69-2.14-3.98-1.11-.11-2.21-.11-3.32-.11-.87,0-1.72,0-2.55.07-2.82.25-3.26,2.09-3.26,5.42,0,.77,0,1.56.05,2.38.21,3.57,1.98,3.65,4.24,3.7h1.68c.69,0,1.38,0,2.09-.05,2.63-.11,3.34-.74,3.34-3.89,0-.17-.06-.32-.06-.49h-2.63Z"></path><path class="cls-4" d="m261.02,58.01l-1.98-.06h-.2l-1.93.08c-3.57.05-3.98,1.12-3.98,5.61,0,.68,0,1.37.05,2.08.07,2.75,1.27,3.61,3.21,3.79.61.07,1.22.07,1.82.07h1.04l1.9-.05c3.99-.2,4.19-1.63,4.19-5.95v-.57c0-4.06-1.02-5-4.11-5m1.36,6.89c-.09,1.8-.9,1.88-2.13,1.88h-1.41c-.49,0-.98,0-1.47-.05-1.6-.03-1.69-.77-1.69-2.66v-.43c0-.47,0-.88.04-1.34.17-1.55,1.07-1.48,1.97-1.5h1.35c.46-.04.9-.04,1.36-.04.54,0,1.28.04,1.61.41.37.44.41,1.51.41,2.22,0,.47-.03,1.02-.03,1.52"></path><path class="cls-4" d="m234.98,66.78c-.48,0-.93.05-1.38.05l-1.06-.05c-1.94-.08-2.04-.7-2.04-2.99s0-2.99,1.77-2.99l1.36-.04h.78c.24,0,.48,0,.73.04.79.03,1.28.18,1.28,1.3h2.62c-.03-2.05-.29-3.69-2.18-3.98-1.1-.11-2.21-.11-3.31-.11-.83,0-1.7,0-2.56.07-2.84.25-3.24,2.09-3.24,5.42,0,.77.04,1.56.09,2.38.2,3.57,1.92,3.65,4.22,3.7h1.68c.7,0,1.35,0,2.05-.05,2.63-.11,3.32-.74,3.32-3.89v-.49h-2.66c0,1.56-.59,1.63-1.49,1.63"></path><polygon class="cls-4" points="188.17 60.96 192.16 60.96 192.16 69.45 194.86 69.45 194.86 60.96 198.85 60.96 198.85 58.12 188.17 58.12 188.17 60.96"></polygon><path class="cls-4" d="m183.44,62.48h-1.76l-1.8-.06c-.62-.03-1.57.09-1.57-1,0-.71.5-.83.99-.87.7-.04,1.35-.08,2.04-.08h1.34c.61.04,1.01.24,1.06,1.11h2.62c0-.74,0-1.52-.27-2.18-.62-1.36-1.86-1.36-2.96-1.38l-1.89-.06c-1.03,0-3.04.06-3.94.38-1.44.44-1.69,1.6-1.69,3.27,0,2.14.53,3.16,2.28,3.29,1.44.11,2.93.11,4.41.11h.46c.62,0,1.27.09,1.27,1.03,0,.99-.62.95-1.19.99-.61.05-1.21.08-1.85.08-.41,0-.82-.03-1.26-.03-.63-.05-1.41,0-1.41-1.09v-.14h-2.62v.64c0,2.63,1.11,2.88,2.75,3.04.62.05,1.23.05,1.8.05,1.2,0,2.34-.05,3.5-.13,2.06-.21,3-.69,3-3.53s-1.19-3.44-3.29-3.44"></path><path class="cls-4" d="m278.27,64.04c.32-.71.37-1.56.37-2.35,0-2.74-.85-3.57-2.94-3.57h-8.31v11.33h2.73v-2.91h4.51c1.16,0,1.2.57,1.2,1.84v1.07h2.74v-2.18c0-1.55-.7-1.96-1.85-2.17.59-.24,1.23-.42,1.57-1.07m-3.74-.25h-4.43v-2.91h4.51c.25,0,.53,0,.77.08.51.21.51.65.54,1.27,0,1.23-.11,1.56-1.4,1.56"></path><path class="cls-4" d="m154.78,58.01l-1.96-.06h-.17l-1.93.08c-3.58.05-3.99,1.12-3.99,5.61v2.08c.1,2.75,1.28,3.61,3.24,3.79.64.07,1.24.07,1.86.07h.99l1.89-.05c4.02-.2,4.22-1.63,4.22-5.95v-.57c0-4.06-1.02-5-4.15-5m1.35,6.89c-.04,1.8-.86,1.88-2.13,1.88h-1.39c-.46,0-.99,0-1.45-.05-1.64-.03-1.72-.77-1.72-2.66v-.43c0-.47,0-.88.03-1.34.17-1.55,1.06-1.48,2-1.5h1.33c.45-.04.9-.04,1.36-.04.54,0,1.27.04,1.59.41.37.44.41,1.51.41,2.22,0,.47,0,1.02-.04,1.52"></path><polygon class="cls-4" points="170.85 66.62 165.46 58.12 161.15 58.12 161.15 69.45 163.69 69.45 163.69 60.91 169.08 69.45 173.39 69.45 173.39 58.12 170.85 58.12 170.85 66.62"></polygon><path class="cls-1" d="m66.46,26.17c1.49-.43,3.03-.83,4.62-1.2v-1.57c-1.57.21-3.11.46-4.62.73v2.04Z"></path><path class="cls-1" d="m34.61,39h9.76c2.57-3.58,6.99-6.8,12.76-9.43v-3.3c-10.56,3-18.61,7.47-22.52,12.74"></path><path class="cls-1" d="m89.16,22.26h0c-.29,0-.59,0-.88,0-2.67,0-5.3.08-7.88.24v.79c2.83-.38,5.75-.67,8.76-.84v3.14h14.25v-3.32h-14.25Z"></path><path class="cls-1" d="m66.46,43.04c1.57-.22,3.11-.46,4.62-.73v-2.06c-1.49.43-3.03.83-4.62,1.2v1.59Z"></path><path class="cls-1" d="m48.4,40.85h-14.25v3.33h12.85c.74.01,1.48.02,2.22.02,2.69,0,5.33-.08,7.92-.24v-.81c-2.82.38-5.74.66-8.74.84v-3.13Z"></path><path class="cls-1" d="m80.4,36.86v3.32c10.53-3,18.57-7.47,22.47-12.72h-9.76c-2.56,3.57-6.96,6.78-12.71,9.41"></path><polygon class="cls-2" points="58.18 44.2 58.18 22.26 65.42 22.26 65.42 29.7 72.14 29.7 72.14 22.26 79.34 22.26 79.34 44.2 72.14 44.2 72.14 35.7 65.42 35.7 65.42 44.2 58.18 44.2"></polygon><polygon class="cls-5" points="122.38 29.68 115.64 29.68 115.64 22.23 108.41 22.23 108.41 44.17 115.64 44.17 115.64 35.66 122.38 35.66 122.38 44.17 129.58 44.17 129.58 22.23 122.38 22.23 122.38 29.68"></polygon><path class="cls-5" d="m179.06,41.99s-.03-.06-.03-.08l-.12-3.06c-.03-1.47-.32-2.56-.9-3.33-.57-.76-1.45-1.26-2.72-1.53,1.24-.51,2.14-1.23,2.72-2.11.58-.88.87-1.96.87-3.32,0-2.23-.71-3.85-2.11-4.85-1.44-.97-3.82-1.47-7.15-1.47h-10.67v21.94h7.07v-7.57h3.13c1.07,0,1.82.24,2.28.67.43.49.67,1.27.67,2.43v2.16c0,.24.04.53.09.91.09.42.17.85.3,1.39h7.2v-.83c-.38-.03-.58-.5-.62-1.36m-7.44-10.78c-.44.29-1.2.46-2.35.46h-3.26v-4.11h3.13c1.21,0,2.03.15,2.47.44.44.32.66.85.66,1.62s-.22,1.29-.66,1.59"></path><path class="cls-5" d="m144.48,21.68h-.03c-3.58,0-6.41,1.03-8.46,3.09-2.09,2.05-3.11,4.88-3.11,8.46s1.02,6.38,3.11,8.44c2.05,2.08,4.88,3.11,8.46,3.11h.03c3.56,0,6.38-1.03,8.47-3.11,2.1-2.06,3.13-4.89,3.13-8.44s-1.03-6.41-3.13-8.46c-2.08-2.06-4.91-3.09-8.47-3.09m3.29,16.14c-.7.97-1.79,1.43-3.29,1.43h-.03c-1.5,0-2.59-.5-3.29-1.47-.73-.97-1.06-2.49-1.06-4.55s.33-3.61,1.06-4.59c.7-.96,1.79-1.47,3.29-1.47h.03c1.5,0,2.59.51,3.29,1.47.68.94,1.03,2.5,1.03,4.59s-.35,3.62-1.03,4.59"></path><path class="cls-5" d="m262.29,22.23h-3.64l-7.91,21.94h7.11l.85-2.88h7.18l.85,2.88h7.17l-7.91-21.94h-3.7Zm0,14.45h-2.26l2.26-7.51.03-.08,2.27,7.6h-2.3Z"></path><polygon class="cls-5" points="284 38.34 284 22.23 276.74 22.23 276.74 44.17 293.85 44.17 293.85 38.34 284 38.34"></polygon><path class="cls-5" d="m195.84,33.23c-.09.26-.2.68-.32,1.23-.12.55-.27,1.2-.41,1.95-.2-.94-.37-1.68-.5-2.2-.11-.54-.2-.89-.22-1.04l-3.13-10.94h-8.72v21.94h6.49v-10.59c0-.41,0-.93-.02-1.61-.04-.67-.04-1.5-.07-2.44.22,1.05.39,1.88.51,2.51.14.61.26,1.18.41,1.64l2.79,10.5h4.99l2.76-10.73.07-.21c.31-1.33.61-2.56.88-3.7-.03.67-.03,1.33-.03,1.94v1.91l-.06,10.79h6.5v-21.94h-8.73l-3.18,11Z"></path><polygon class="cls-5" points="219.01 35.46 228.12 35.46 228.12 30.41 219.01 30.41 219.01 27.49 229.77 27.49 229.77 22.23 211.83 22.23 211.83 44.17 230.21 44.17 230.21 38.85 219.01 38.85 219.01 35.46"></polygon><polygon class="cls-5" points="232.56 28.03 239.06 28.03 239.06 44.17 246.29 44.17 246.29 28.03 252.67 28.03 252.67 22.23 232.56 22.23 232.56 28.03"></polygon></svg>