<svg xmlns="http://www.w3.org/2000/svg" id="Capa_1" viewBox="0 0 328 86.27"><defs><style>.cls-1{stroke-width:.18px;}.cls-1,.cls-2{fill:none;stroke:#231f20;}.cls-3{fill:#6d6e71;}.cls-3,.cls-4,.cls-5{stroke-width:0px;}.cls-4{fill:#195296;}.cls-5{fill:#231f20;}.cls-2{stroke-width:.18px;}</style></defs><rect class="cls-5" x="123.94" y="33.34" width="3.35" height="22.29"></rect><rect class="cls-1" x="123.94" y="33.34" width="3.35" height="22.29"></rect><polygon class="cls-5" points="150.37 33.34 150.37 55.63 147.49 55.63 132.99 38.56 132.99 55.63 129.65 55.63 129.65 33.34 132.69 33.34 147.02 50.31 147.02 33.34 150.37 33.34"></polygon><polygon class="cls-1" points="150.37 33.34 150.37 55.63 147.49 55.63 132.99 38.56 132.99 55.63 129.65 55.63 129.65 33.34 132.69 33.34 147.02 50.31 147.02 33.34 150.37 33.34"></polygon><path class="cls-5" d="m159.18,33.34c4.45,0,5.02.07,7.16,1.07,3.72,1.71,6.23,5.72,6.23,10.01,0,3.75-1.84,7.2-4.86,9.21-2.18,1.44-4.52,2.01-8.13,2.01h-7.43v-22.29h7.03Zm.44,19.35c2.88,0,4.55-.43,6.12-1.5,2.14-1.47,3.38-3.95,3.38-6.79,0-3.21-1.57-5.89-4.15-7.13-1.68-.8-2.54-.97-5.73-.97h-3.75v16.4h4.12Z"></path><path class="cls-1" d="m159.18,33.34c4.45,0,5.02.07,7.16,1.07,3.72,1.71,6.23,5.72,6.23,10.01,0,3.75-1.84,7.2-4.86,9.21-2.18,1.44-4.52,2.01-8.13,2.01h-7.43v-22.29h7.03Zm.44,19.35c2.88,0,4.55-.43,6.12-1.5,2.14-1.47,3.38-3.95,3.38-6.79,0-3.21-1.57-5.89-4.15-7.13-1.68-.8-2.54-.97-5.73-.97h-3.75v16.4h4.12Z"></path><path class="cls-5" d="m177.34,33.34v13.66c0,2.34.33,3.24,1.61,4.39,1.14,1.04,2.54,1.54,4.52,1.51,1.94,0,3.38-.47,4.48-1.51,1.27-1.17,1.61-2.04,1.61-4.35v-13.69h3.35v13.69c0,3.18-.73,5.02-2.58,6.56-1.78,1.47-4.28,2.31-6.89,2.31s-5.12-.84-6.86-2.31c-1.88-1.58-2.58-3.38-2.58-6.56v-13.69h3.35Z"></path><path class="cls-1" d="m177.34,33.34v13.66c0,2.34.33,3.24,1.61,4.39,1.14,1.04,2.54,1.54,4.52,1.51,1.94,0,3.38-.47,4.48-1.51,1.27-1.17,1.61-2.04,1.61-4.35v-13.69h3.35v13.69c0,3.18-.73,5.02-2.58,6.56-1.78,1.47-4.28,2.31-6.89,2.31s-5.12-.84-6.86-2.31c-1.88-1.58-2.58-3.38-2.58-6.56v-13.69h3.35Z"></path><polygon class="cls-5" points="198.25 33.34 205.48 42.38 212.62 33.34 215.7 33.34 215.7 55.63 212.35 55.63 212.35 38.56 205.48 47.3 198.46 38.56 198.46 55.63 195.11 55.63 195.11 33.34 198.25 33.34"></polygon><polygon class="cls-1" points="198.25 33.34 205.48 42.38 212.62 33.34 215.7 33.34 215.7 55.63 212.35 55.63 212.35 38.56 205.48 47.3 198.46 38.56 198.46 55.63 195.11 55.63 195.11 33.34 198.25 33.34"></polygon><path class="cls-5" d="m217.4,44.48c0-6.59,5.02-11.41,11.88-11.41s11.88,4.82,11.88,11.41-4.98,11.42-11.88,11.42-11.88-4.79-11.88-11.42m20.35,0c0-4.89-3.45-8.23-8.5-8.23s-8.4,3.31-8.4,8.23,3.38,8.24,8.43,8.24,8.5-3.35,8.47-8.24"></path><path class="cls-1" d="m217.4,44.48c0-6.59,5.02-11.41,11.88-11.41s11.88,4.82,11.88,11.41-4.98,11.42-11.88,11.42-11.88-4.79-11.88-11.42Zm20.35,0c0-4.89-3.45-8.23-8.5-8.23s-8.4,3.31-8.4,8.23,3.38,8.24,8.43,8.24,8.5-3.35,8.47-8.24Z"></path><polygon class="cls-5" points="263.31 33.34 263.31 55.63 260.43 55.63 245.93 38.56 245.93 55.63 242.59 55.63 242.59 33.34 245.63 33.34 259.96 50.31 259.96 33.34 263.31 33.34"></polygon><polygon class="cls-1" points="263.31 33.34 263.31 55.63 260.43 55.63 245.93 38.56 245.93 55.63 242.59 55.63 242.59 33.34 245.63 33.34 259.96 50.31 259.96 33.34 263.31 33.34"></polygon><path class="cls-3" d="m76.32,72.63c-.87,0-1.73-.23-2.51-.69-1.14-.67-1.94-1.74-2.27-3.02l-6.69-26.11c-.67-2.64.92-5.33,3.55-6.01l19.3-4.95c1.27-.33,2.6-.14,3.74.54,1.14.67,1.94,1.74,2.27,3.02l6.69,26.11c.33,1.27.14,2.6-.54,3.74-.67,1.14-1.75,1.94-3.02,2.27l-19.3,4.95c-.41.1-.82.16-1.23.16m12.6-36.51s-.08,0-.12.02l-19.3,4.95c-.27.07-.44.36-.37.63l6.69,26.11c.05.18.17.27.24.31.07.04.22.1.39.06l19.3-4.95c.18-.05.27-.17.31-.24.05-.08.1-.22.06-.39l-6.69-26.11c-.05-.18-.17-.27-.24-.31-.05-.03-.15-.08-.27-.08"></path><path class="cls-4" d="m77.25,61.11c-.83-.26-1.59-.74-2.19-1.41-.88-.98-1.33-2.24-1.27-3.56l1.4-26.92c.14-2.72,2.47-4.81,5.18-4.67l19.9,1.03c1.31.07,2.52.65,3.41,1.63.88.98,1.33,2.24,1.26,3.56l-1.4,26.92c-.07,1.31-.65,2.52-1.63,3.41-.98.88-2.24,1.33-3.56,1.26l-19.9-1.03c-.42-.02-.83-.1-1.22-.22m22.91-31.09s-.08-.02-.12-.02l-19.9-1.03c-.28-.01-.53.21-.54.49l-1.39,26.92c0,.18.08.31.13.37s.18.16.35.17l19.9,1.03c.18,0,.31-.08.37-.14.07-.07.16-.18.17-.35l1.4-26.92c0-.18-.08-.31-.13-.37-.04-.05-.12-.12-.23-.15"></path><path class="cls-5" d="m82.25,50.96c-.71-.51-1.27-1.2-1.63-2.03-.53-1.21-.55-2.55-.08-3.77l9.84-25.09c.99-2.53,3.86-3.79,6.4-2.79l18.55,7.27c1.22.48,2.19,1.41,2.72,2.62.53,1.21.55,2.55.07,3.77l-9.84,25.09c-.48,1.22-1.41,2.19-2.62,2.72-1.21.53-2.55.55-3.77.08l-18.55-7.27c-.39-.15-.76-.35-1.09-.59m31.57-22.25s-.07-.04-.11-.06l-18.55-7.27c-.26-.1-.57.03-.67.29l-9.84,25.09c-.07.17-.02.32.01.39.03.07.12.21.28.28l18.55,7.27c.17.07.32.02.4-.01.09-.04.21-.12.28-.28l9.84-25.1c.07-.17.02-.32-.01-.39-.03-.06-.08-.15-.17-.22"></path><path class="cls-2" d="m82.25,50.96c-.71-.51-1.27-1.2-1.63-2.03-.53-1.21-.55-2.55-.08-3.77l9.84-25.09c.99-2.53,3.86-3.79,6.4-2.79l18.55,7.27c1.22.48,2.19,1.41,2.72,2.62.53,1.21.55,2.55.07,3.77l-9.84,25.09c-.48,1.22-1.41,2.19-2.62,2.72-1.21.53-2.55.55-3.77.08l-18.55-7.27c-.39-.15-.76-.35-1.09-.59Zm31.57-22.25s-.07-.04-.11-.06l-18.55-7.27c-.26-.1-.57.03-.67.29l-9.84,25.09c-.07.17-.02.32.01.39.03.07.12.21.28.28l18.55,7.27c.17.07.32.02.4-.01.09-.04.21-.12.28-.28l9.84-25.1c.07-.17.02-.32-.01-.39-.03-.06-.08-.15-.17-.22Z"></path></svg>