<svg xmlns="http://www.w3.org/2000/svg" id="Capa_1" viewBox="0 0 328 86.27"><defs><style>.cls-1{fill:#1f8541;}.cls-1,.cls-2{fill-rule:evenodd;}.cls-1,.cls-2,.cls-3{stroke-width:0px;}.cls-2{fill:#fff;}</style></defs><path class="cls-1" d="m110.17,44.78c0,16.94-13.73,30.67-30.67,30.67s-30.67-13.73-30.67-30.67,13.73-30.67,30.67-30.67,30.67,13.73,30.67,30.67"></path><path class="cls-3" d="m125.32,34.73v7.4h-4.74v-19.93h7.86c1.75,0,3.09.19,4.02.56.93.37,1.76,1.04,2.49,2.01.73.96,1.09,2.15,1.09,3.55,0,.98-.19,1.94-.58,2.88-.39.93-.94,1.67-1.65,2.2-.71.54-1.4.89-2.07,1.07-.67.17-1.71.26-3.13.26h-3.29Zm-.16-3.62h3.04c1.16,0,1.97-.27,2.44-.8.47-.53.7-1.15.7-1.84,0-.81-.26-1.45-.78-1.93-.52-.48-1.31-.72-2.37-.72h-3.02v5.28Z"></path><path class="cls-3" d="m164.17,22.2l6.24,19.93h-5.02l-1.23-4.1h-6.44l-1.25,4.1h-4.09l6.39-19.93h5.4Zm-5.33,12.15h4.22l-2.09-6.99-2.13,6.99Z"></path><polygon class="cls-3" points="187.56 25.63 177.49 38.32 187.88 38.32 187.88 42.13 171.79 42.13 171.79 38.74 181.83 25.97 172.46 25.97 172.46 22.2 187.56 22.2 187.56 25.63"></polygon><path class="cls-3" d="m200.59,22.2l6.24,19.93h-5.02l-1.23-4.1h-6.44l-1.25,4.1h-4.09l6.39-19.93h5.4Zm-5.33,12.15h4.22l-2.09-6.99-2.13,6.99Z"></path><rect class="cls-3" x="120.57" y="47.12" width="4.66" height="19.93"></rect><path class="cls-3" d="m144.88,47.12v19.93h-3.98l-7.8-13.46c.01.34.02.57.03.67.04.34.06.63.06.86v11.93h-3.64v-19.93h5.03l6.78,11.75c-.06-.58-.09-1.03-.09-1.33v-10.42h3.61Z"></path><path class="cls-3" d="m148.92,47.12h6.08c2.48,0,4.33.34,5.54,1.03,1.21.69,2.3,1.77,3.27,3.26.96,1.48,1.45,3.36,1.45,5.63,0,2.85-.84,5.23-2.52,7.15-1.68,1.91-4,2.87-6.96,2.87h-6.86v-19.93Zm4.58,3.66v12.51h1.92c1.7,0,2.96-.64,3.79-1.91.83-1.27,1.24-2.76,1.24-4.48,0-1.21-.24-2.32-.71-3.35-.47-1.03-1.06-1.75-1.75-2.16-.7-.41-1.54-.62-2.52-.62h-1.97Z"></path><path class="cls-3" d="m183.37,47.12v12.41c0,2-.23,3.5-.69,4.47-.46.98-1.3,1.78-2.53,2.41-1.23.63-2.81.94-4.72.94s-3.44-.28-4.58-.85c-1.13-.56-1.98-1.37-2.55-2.41-.57-1.04-.85-2.56-.85-4.57v-12.41h5.06v12.41c0,1.07.09,1.86.27,2.36.18.51.54.91,1.08,1.2s1.2.44,1.99.44c.87,0,1.59-.15,2.14-.44.55-.29.92-.68,1.1-1.16.18-.48.27-1.29.27-2.42v-12.41h4Z"></path><path class="cls-3" d="m201.31,51.5l-3.97,1.33c-.53-1.58-1.66-2.37-3.39-2.37-1.84,0-2.77.6-2.77,1.8,0,.48.17.88.52,1.21.34.33,1.12.62,2.34.86,2.03.41,3.52.82,4.46,1.24.94.42,1.74,1.09,2.38,2.02.65.93.97,1.97.97,3.12,0,1.8-.69,3.36-2.08,4.67-1.39,1.31-3.44,1.97-6.16,1.97-2.04,0-3.78-.46-5.22-1.39-1.43-.93-2.38-2.31-2.84-4.14l4.32-.98c.49,1.86,1.84,2.79,4.05,2.79,1.07,0,1.87-.21,2.39-.62.52-.41.79-.91.79-1.48s-.24-1.04-.71-1.36c-.48-.32-1.4-.62-2.76-.91-2.54-.53-4.34-1.24-5.42-2.15-1.08-.91-1.62-2.24-1.62-3.99s.64-3.27,1.93-4.48c1.29-1.22,3.04-1.83,5.24-1.83,3.91,0,6.42,1.56,7.54,4.69"></path><polygon class="cls-3" points="217.67 47.12 217.67 51.06 212.74 51.06 212.74 67.05 208.01 67.05 208.01 51.06 203.04 51.06 203.04 47.12 217.67 47.12"></polygon><path class="cls-3" d="m224.69,59.15v7.9h-4.7v-19.93h8.76c1.61,0,2.91.19,3.89.56.98.37,1.79,1.06,2.43,2.07.64,1,.96,2.12.96,3.34,0,2.39-1.15,4.11-3.46,5.15l3.68,8.81h-5.16l-3.06-7.9h-3.34Zm0-8.48v5.08h2.86c.94,0,1.61-.07,2.04-.2.42-.13.8-.42,1.13-.88.33-.45.5-.97.5-1.56s-.16-1.05-.5-1.49c-.33-.44-.69-.71-1.08-.81-.39-.1-1.12-.15-2.19-.15h-2.76Z"></path><rect class="cls-3" x="239.68" y="47.12" width="4.66" height="19.93"></rect><path class="cls-3" d="m258.12,47.12l6.24,19.93h-5.02l-1.23-4.1h-6.44l-1.25,4.1h-4.09l6.39-19.93h5.4Zm-5.33,12.15h4.22l-2.09-6.99-2.13,6.99Z"></path><polygon class="cls-3" points="271.24 63.11 279.17 63.11 279.17 67.05 266.51 67.05 266.51 47.12 271.24 47.12 271.24 63.11"></polygon><path class="cls-2" d="m79.5,19.59c-13.89,0-25.19,11.3-25.19,25.19,0,12.08,8.56,22.2,19.93,24.63v-27.58c0-3.47,2.9-6.37,6.37-6.37s6.37,2.9,6.37,6.37-2.9,6.37-6.37,6.37l-1.91.06v5.7c3.39-.13,6.26,0,10.43-2.94,2.49-2.32,4.06-5.6,4.06-9.19,0-6.87-5.71-12.58-12.58-12.58s-12.58,5.71-12.58,12.58v19.67c-5.32-3.66-8.82-9.79-8.82-16.72,0-11.19,9.11-20.3,20.3-20.3s20.3,9.11,20.3,20.3c0,9.36-6.37,17.25-15,19.59v-5.81c-2.08.52-4.79.82-6.21.76v10.63c.3.01.61.02.91.02,13.89,0,25.19-11.3,25.19-25.19s-11.3-25.19-25.19-25.19"></path><polygon class="cls-3" points="143.28 38.19 151.21 38.19 151.21 42.13 138.55 42.13 138.55 22.2 143.28 22.2 143.28 38.19"></polygon></svg>