<svg xmlns="http://www.w3.org/2000/svg" id="Capa_1" viewBox="0 0 328 86.27"><defs><style>.cls-1{fill:#231f20;}.cls-1,.cls-2{stroke-width:0px;}.cls-2{fill:#ff8300;}</style></defs><path class="cls-1" d="m81.45,25.2c3.59,0,6.11.3,7.73,1.37,2.34,1.56,3.62,4.15,3.62,7.54s-.99,5.59-3.04,7.11c-2.23,1.64-4.79,1.75-8.09,1.75h-6.7v9.55h-5.53v-27.32h12.01Zm-6.48,4.87v8.07h6.73c3.34,0,4.94-1.29,4.94-4.03,0-3.05-1.61-4.03-5.27-4.03h-6.41Z"></path><path class="cls-1" d="m106.33,25.2c6.22,0,9.19,2.47,9.19,8.22,0,4.22-1.9,6.92-5.31,7.69l6.56,11.41h-6.23l-5.79-10.73h-6.52v10.73h-5.52v-27.32h13.62Zm-8.09,4.87v6.88h6.77c3.3,0,4.9-.68,4.9-3.46s-1.61-3.42-4.9-3.42h-6.77Z"></path><path class="cls-1" d="m132.01,25.2l11.2,27.32h-6.15l-2.41-6.51h-11.42l-2.35,6.51h-5.86l11.13-27.32h5.86Zm-6.99,15.94h7.83l-3.99-10.5-3.84,10.5Z"></path><path class="cls-1" d="m155.14,25.2c8.45,0,12.37,4.48,12.37,14.15,0,4.95-1.32,8.53-4.02,10.77-2.57,2.13-5.02,2.4-8.21,2.4h-12.19v-27.32h12.05Zm-6.52,4.76v17.8h6.41c4.91,0,6.45-2.17,6.45-8.9s-1.54-8.9-6.45-8.9h-6.41Z"></path><path class="cls-1" d="m173.6,36.31h10.24v4.75h-10.28c.04,4.9,1.91,6.69,6.26,6.69h9.08v4.75h-9.33c-3.19,0-5.64-.27-8.2-2.39-2.71-2.24-4.03-5.82-4.03-10.75,0-9.65,3.92-14.13,12.37-14.13h20.31l-5.18,4.75h-15.02c-3.99,0-6.01,2.05-6.22,6.35"></path><path class="cls-2" d="m195.75,39.56c0,6.14,1.8,8.2,6.47,8.2h9.12v4.76h-9.38c-3.2,0-5.67-.27-8.23-2.4-2.72-2.25-4.05-5.83-4.05-10.79,0-9.68,3.94-14.17,12.43-14.17h9.23v4.69h-9.12c-4.67,0-6.47,2.94-6.47,9.72"></path><path class="cls-2" d="m222.13,25.15c8.78,0,12.87,4.36,12.87,13.68s-4.1,13.72-12.87,13.72-12.87-4.4-12.87-13.97c0-9.06,4.2-13.42,12.87-13.42m-6.94,13.46c0,6.42,2.08,9.39,6.94,9.39s6.98-2.97,6.98-9.17-2.2-9.17-6.98-9.17-6.94,2.97-6.94,8.95"></path><polygon class="cls-2" points="242.05 25.12 253.06 44.86 252.8 25.12 258.57 25.12 258.57 52.6 252.02 52.6 240.43 31.82 240.7 52.6 234.89 52.6 234.89 25.12 242.05 25.12"></polygon><path class="cls-2" d="m169.34,22.86c-.4.42-.92.64-1.4.64-.36,0-.7-.13-.96-.37l-5.34-4.81h-94.64c-.85,0-1.53-.73-1.53-1.63,0-.45.17-.86.45-1.15.28-.3.66-.48,1.08-.48h95.88c.32,0,.61.1.85.28l.23.21,5.5,4.96c.62.59.56,1.65-.12,2.37"></path><path class="cls-1" d="m65.23,57.22c0,.9.73,1.63,1.64,1.63h194.27c.9,0,1.64-.73,1.64-1.63s-.73-1.63-1.64-1.63H66.87c-.9,0-1.64.73-1.64,1.63"></path><path class="cls-1" d="m262.64,20.17c0,.91-.73,1.64-1.63,1.64h-84.13c-.31,0-.62-.08-.87-.25l-.49-.47-6.62-6.43c-.69-.67-.7-1.77-.03-2.46.34-.35.79-.52,1.25-.52.28,0,.56.07.82.2l6.94,6.67h83.14c.45,0,.86.18,1.15.47.3.29.48.7.48,1.15"></path><polygon class="cls-1" points="72.35 66.99 74.5 66.99 74.5 72.88 78.69 72.88 78.69 74.4 72.35 74.4 72.35 66.99"></polygon><polygon class="cls-1" points="80.34 66.99 86.71 66.99 86.71 68.51 82.5 68.51 82.5 69.89 86.48 69.89 86.48 71.4 82.5 71.4 82.5 72.88 86.8 72.88 86.8 74.4 80.34 74.4 80.34 66.99"></polygon><path class="cls-1" d="m93.29,66.99h4.12c.98,0,1.92.12,2.67.62.92.61,1.53,1.67,1.53,3.02s-.48,2.29-1.18,2.88c-.64.54-1.66.89-3.17.89h-3.96v-7.41Zm2.16,5.97h.97c1.75,0,2.97-.27,2.97-2.3,0-1.74-1.02-2.24-2.61-2.24h-1.33v4.54Z"></path><path class="cls-1" d="m105.67,66.99h2.58l3.85,7.41h-2.41l-.7-1.47h-4.31l-.72,1.47h-2.22l3.93-7.41Zm1.19,1.44l-1.52,3.13h2.99l-1.47-3.13Z"></path><polygon class="cls-1" points="113.57 66.99 116.9 66.99 119.08 72.49 121.39 66.99 124.6 66.99 124.6 74.4 122.57 74.4 122.57 68.37 122.55 68.37 120.1 74.4 117.88 74.4 115.42 68.37 115.4 68.37 115.4 74.4 113.57 74.4 113.57 66.99"></polygon><path class="cls-1" d="m130.89,66.8c3.1,0,4.4,1.66,4.4,3.9s-1.3,3.9-4.4,3.9-4.4-1.66-4.4-3.9,1.3-3.9,4.4-3.9m0,6.28c1.64,0,2.19-1.08,2.19-2.38s-.54-2.38-2.19-2.38-2.19,1.08-2.19,2.38.54,2.38,2.19,2.38"></path><path class="cls-1" d="m138.94,72c.02.94.45,1.16,1.46,1.16,1.27,0,1.47-.45,1.47-.78,0-.49-.51-.66-1.36-.82l-1.06-.21c-1.22-.24-2.51-.69-2.51-2.1,0-1.82,1.68-2.45,3.38-2.45,2.71,0,3.48.83,3.55,2.31h-2.09c-.06-.76-.68-.87-1.32-.87-.94,0-1.35.32-1.35.73,0,.5.68.64,1.47.8l.99.21c1.35.28,2.46.72,2.46,2.19,0,2.06-2.08,2.44-3.75,2.44-2.99,0-3.49-1.28-3.49-2.6h2.15Z"></path><polygon class="cls-1" points="155.03 74.4 152.44 74.4 149.31 66.99 151.65 66.99 153.81 73.03 156.05 66.99 158.15 66.99 155.03 74.4"></polygon><rect class="cls-1" x="159.5" y="66.99" width="2.16" height="7.41"></rect><path class="cls-1" d="m163.9,66.99h4.12c.98,0,1.92.12,2.67.62.92.61,1.53,1.67,1.53,3.02s-.48,2.29-1.18,2.88c-.64.54-1.66.89-3.17.89h-3.96v-7.41Zm2.16,5.97h.98c1.74,0,2.97-.27,2.97-2.3,0-1.74-1.02-2.24-2.61-2.24h-1.33v4.54Z"></path><path class="cls-1" d="m176.27,66.99h2.58l3.85,7.41h-2.41l-.7-1.47h-4.31l-.72,1.47h-2.22l3.93-7.41Zm1.19,1.44l-1.52,3.13h2.99l-1.47-3.13Z"></path><path class="cls-1" d="m191.5,66.99h2.58l3.85,7.41h-2.41l-.7-1.47h-4.31l-.72,1.47h-2.22l3.93-7.41Zm1.19,1.44l-1.52,3.13h2.99l-1.47-3.13Z"></path><polygon class="cls-1" points="199.48 66.99 201.64 66.99 201.64 72.88 205.83 72.88 205.83 74.4 199.48 74.4 199.48 66.99"></polygon><path class="cls-1" d="m214.72,66.99h2.57l3.85,7.41h-2.41l-.7-1.47h-4.31l-.72,1.47h-2.22l3.93-7.41Zm1.19,1.44l-1.52,3.13h2.99l-1.47-3.13Z"></path><path class="cls-1" d="m227.91,69.42c-.11-.82-.78-1.11-1.6-1.11-1.41,0-2.08.99-2.08,2.34s.56,2.42,2.02,2.42c.82,0,1.57-.29,1.64-1.19h2.28c-.09,2.19-1.9,2.71-4.13,2.71s-4.02-1.13-4.02-3.89,1.72-3.91,4.37-3.91c1.89,0,3.72.67,3.75,2.63h-2.22Z"></path><polygon class="cls-1" points="232.01 66.99 238.37 66.99 238.37 68.51 234.17 68.51 234.17 69.89 238.15 69.89 238.15 71.4 234.17 71.4 234.17 72.88 238.47 72.88 238.47 74.4 232.01 74.4 232.01 66.99"></polygon><path class="cls-1" d="m240.76,66.99h4.53c1.79,0,2.8.65,2.8,1.94,0,.94-.77,1.6-1.88,1.8v.02c.63.04,1.21.18,1.46.65.36.68.4,2.24.71,3.01h-2.29c-.24-.72-.21-1.79-.41-2.3-.13-.34-.46-.51-1.33-.51h-1.44v2.81h-2.16v-7.41Zm2.16,3.16h1.71c.99,0,1.3-.31,1.3-.87,0-.72-.56-.85-1.6-.85h-1.42v1.72Z"></path><path class="cls-1" d="m254.2,66.8c3.1,0,4.4,1.66,4.4,3.9s-1.3,3.9-4.4,3.9-4.4-1.66-4.4-3.9,1.3-3.9,4.4-3.9m0,6.28c1.64,0,2.19-1.08,2.19-2.38s-.54-2.38-2.19-2.38-2.19,1.08-2.19,2.38.54,2.38,2.19,2.38"></path></svg>