<svg xmlns="http://www.w3.org/2000/svg" id="Capa_1" viewBox="0 0 328 86.27"><defs><style>.cls-1{fill-rule:evenodd;}.cls-1,.cls-2{fill:#144991;stroke-width:0px;}</style></defs><path class="cls-2" d="m271.2,28.56c-1.32-1.32-3.43-1.98-6.35-1.98h-10.4c-2.92,0-5.03.66-6.35,1.98-1.32,1.32-1.98,3.43-1.98,6.34v12.9c0,.91.06,1.74.19,2.5h-13.97v-23.31h-28.3c-2.91,0-5.03.65-6.35,1.98-1.32,1.32-1.98,3.43-1.98,6.35v1.25c0,2.91.66,5.03,1.98,6.35,1.32,1.32,3.43,1.98,6.35,1.98h9.57v3.53c0,.6-.19,1.08-.56,1.43-.38.35-.88.53-1.52.53h-19.56v-23.39h-7.49v17.48l-9.99-17.48h-7.91v23.38h-4.26l-8.85-23.38h-8.32l-8.86,23.38h-6.28l-1.93-3.4c1.66-.41,2.88-1.26,3.64-2.54.76-1.27,1.15-3.07,1.15-5.37v-3.74c0-2.91-.66-5.03-1.98-6.35-1.32-1.32-3.43-1.98-6.35-1.98h-59.88l-1.5,5.82h24.76v23.31h7.49v-23.31h11.65v23.31h7.49v-8.74h5.83l4.79,8.74h17.06l1.87-5.2h10.4l1.88,5.2h17.69v-17.48l9.99,17.48h7.91c1.46.12,4.39.12,5.65.12h15.57c2.72,0,4.72-.63,6-1.88,1.28-1.26,1.91-3.22,1.91-5.9v-2.05c0-2.67-.64-4.64-1.91-5.9-1.28-1.26-3.28-1.88-6-1.88h-7.49c-1.67,0-2.5-.83-2.5-2.5v-.83c0-1.67.83-2.5,2.5-2.5h19.14v23.31h39.99c2.91,0,5.03-.66,6.35-1.98,1.32-1.32,1.98-3.43,1.98-6.35v-12.9c0-2.91-.66-5.03-1.98-6.34m-145.81,10.51c0,1.67-.83,2.5-2.5,2.5h-8.32v-8.74h8.32c1.67,0,2.5.83,2.5,2.5v3.74Zm20.6,6.45l3.33-9.78,3.33,9.78h-6.66Zm119.7,2.7c0,1.67-.84,2.5-2.5,2.5h-7.08c-1.66,0-2.5-.83-2.5-2.5v-13.32c0-1.66.83-2.49,2.5-2.49h7.08c1.66,0,2.5.83,2.5,2.49v13.32Z"></path><polygon class="cls-1" points="84.21 56.26 54.83 56.26 56.02 52.01 84.21 52.01 84.21 56.26"></polygon><polygon class="cls-1" points="84.21 48.64 57.57 48.64 58.76 44.39 84.21 44.39 84.21 48.64"></polygon><polygon class="cls-1" points="84.21 40.84 60.31 40.84 61.5 36.59 84.21 36.59 84.21 40.84"></polygon></svg>